
<svg xmlns="http://www.w3.org/2000/svg" width="214.852" height="34.543" viewBox="0 0 214.852 34.543">
  <g id="Group_2309" data-name="Group 2309" transform="translate(-140 -48)">
    <path id="Path_4121" data-name="Path 4121" d="M72.866,778.492h8.247a5.5,5.5,0,0,0-1.258-3.486,3.775,3.775,0,0,0-2.872-1.156,3.649,3.649,0,0,0-2.792,1.172,5.816,5.816,0,0,0-1.325,3.47m8.9,2.594h-8.9a6.081,6.081,0,0,0,.624,2.736,4.191,4.191,0,0,0,3.841,2.384,5.285,5.285,0,0,0,1.49-.193,4.658,4.658,0,0,0,1.308-.6,9.1,9.1,0,0,0,1.166-.876c.359-.312.819-.734,1.388-1.268a1.483,1.483,0,0,1,1-.3,1.662,1.662,0,0,1,1.138.387,1.373,1.373,0,0,1,.432,1.081,3,3,0,0,1-.484,1.438,5.653,5.653,0,0,1-1.461,1.576,8.175,8.175,0,0,1-2.446,1.258,10.518,10.518,0,0,1-3.391.5,9.066,9.066,0,0,1-6.814-2.5,9.3,9.3,0,0,1-2.429-6.781,11.4,11.4,0,0,1,.6-3.742,8.305,8.305,0,0,1,1.746-2.957,7.6,7.6,0,0,1,2.832-1.888,10.159,10.159,0,0,1,3.731-.66A8.821,8.821,0,0,1,81.7,771.8a7.393,7.393,0,0,1,2.862,2.912,7.679,7.679,0,0,1,.949,3.635,2.284,2.284,0,0,1-.984,2.23A6.163,6.163,0,0,1,81.767,781.086Z" transform="translate(104.93 -715.953)" fill="#24b354"/>
    <path id="Path_4122" data-name="Path 4122" d="M87.153,782.637v3.8a2.928,2.928,0,0,1-.647,2.071,2.159,2.159,0,0,1-1.645.693,2.078,2.078,0,0,1-1.615-.7,2.99,2.99,0,0,1-.632-2.065V773.769q0-3.063,2.213-3.066a1.841,1.841,0,0,1,1.626.717,3.969,3.969,0,0,1,.552,2.122,7.839,7.839,0,0,1,1.673-2.122,3.465,3.465,0,0,1,2.292-.717,5.864,5.864,0,0,1,2.781.717,2.146,2.146,0,0,1,1.348,1.905,1.8,1.8,0,0,1-.574,1.378,1.768,1.768,0,0,1-1.241.54,5.74,5.74,0,0,1-1.2-.308,5.7,5.7,0,0,0-1.7-.306,2.493,2.493,0,0,0-1.632.522,3.412,3.412,0,0,0-.985,1.559,10.989,10.989,0,0,0-.482,2.457c-.085.949-.132,2.1-.132,3.469" transform="translate(109.1 -715.946)" fill="#24b354"/>
    <path id="Path_4123" data-name="Path 4123" d="M96.378,781.442a7.806,7.806,0,0,0,.575,3.151,4.325,4.325,0,0,0,1.575,1.95,3.888,3.888,0,0,0,2.179.662,4.024,4.024,0,0,0,2.19-.627,4.27,4.27,0,0,0,1.581-1.912,7.78,7.78,0,0,0,.592-3.224,7.553,7.553,0,0,0-.592-3.118,4.667,4.667,0,0,0-1.6-2,3.814,3.814,0,0,0-2.207-.689,3.718,3.718,0,0,0-2.23.706,4.578,4.578,0,0,0-1.525,2.031,8.153,8.153,0,0,0-.54,3.071m8.942,6.677v-.449a11.362,11.362,0,0,1-1.81,1.706,6.793,6.793,0,0,1-1.933,1,7.237,7.237,0,0,1-2.275.34,6.7,6.7,0,0,1-3.021-.693,7.023,7.023,0,0,1-2.411-1.975,9.028,9.028,0,0,1-1.543-3.014,12.979,12.979,0,0,1-.524-3.748,9.773,9.773,0,0,1,2.083-6.649,6.934,6.934,0,0,1,5.483-2.384,7.368,7.368,0,0,1,3.316.677,9.167,9.167,0,0,1,2.634,2.08V768.3a3.413,3.413,0,0,1,.557-2.117,1.9,1.9,0,0,1,1.593-.717,1.979,1.979,0,0,1,1.592.66,2.941,2.941,0,0,1,.558,1.94V788.12a2.8,2.8,0,0,1-.6,1.951,2.033,2.033,0,0,1-1.553.648,1.989,1.989,0,0,1-1.541-.676A2.781,2.781,0,0,1,105.32,788.12Z" transform="translate(111.764 -717.464)" fill="#24b354"/>
    <path id="Path_4124" data-name="Path 4124" d="M111.176,778.492h8.247a5.492,5.492,0,0,0-1.258-3.486,3.773,3.773,0,0,0-2.871-1.156,3.654,3.654,0,0,0-2.794,1.172,5.832,5.832,0,0,0-1.325,3.47m8.9,2.594h-8.9a6.081,6.081,0,0,0,.626,2.736,4.187,4.187,0,0,0,3.839,2.384,5.282,5.282,0,0,0,1.491-.193,4.641,4.641,0,0,0,1.308-.6,9.1,9.1,0,0,0,1.166-.876q.538-.468,1.388-1.268a1.484,1.484,0,0,1,1-.3,1.663,1.663,0,0,1,1.138.387,1.369,1.369,0,0,1,.432,1.081,3,3,0,0,1-.484,1.438,5.653,5.653,0,0,1-1.461,1.576,8.167,8.167,0,0,1-2.447,1.258,10.5,10.5,0,0,1-3.388.5,9.067,9.067,0,0,1-6.815-2.5,9.309,9.309,0,0,1-2.429-6.781,11.364,11.364,0,0,1,.6-3.742,8.305,8.305,0,0,1,1.746-2.957,7.608,7.608,0,0,1,2.832-1.888,10.169,10.169,0,0,1,3.731-.66,8.829,8.829,0,0,1,4.574,1.126,7.39,7.39,0,0,1,2.861,2.912,7.666,7.666,0,0,1,.951,3.635,2.284,2.284,0,0,1-.984,2.23A6.17,6.17,0,0,1,120.078,781.086Z" transform="translate(116.033 -715.953)" fill="#24b354"/>
    <path id="Path_4125" data-name="Path 4125" d="M129.94,786.531l-3.92-15.562v16.859a3.072,3.072,0,0,1-.626,2.1,2.282,2.282,0,0,1-3.281.007,3.032,3.032,0,0,1-.632-2.105V768.5a2.439,2.439,0,0,1,.831-2.162,4.013,4.013,0,0,1,2.247-.557h1.536a5.825,5.825,0,0,1,2,.25,1.691,1.691,0,0,1,.929.9,14.138,14.138,0,0,1,.682,2.117l3.548,13.39,3.55-13.39a14.106,14.106,0,0,1,.684-2.117,1.678,1.678,0,0,1,.921-.9,5.882,5.882,0,0,1,2.008-.25h1.53a4.027,4.027,0,0,1,2.253.557,2.442,2.442,0,0,1,.831,2.162v19.328a3.072,3.072,0,0,1-.627,2.1,2.121,2.121,0,0,1-1.666.7,2.077,2.077,0,0,1-1.615-.7,3.04,3.04,0,0,1-.632-2.1V770.97l-3.919,15.562c-.255,1.007-.462,1.753-.626,2.225a3.068,3.068,0,0,1-.887,1.285,2.6,2.6,0,0,1-1.8.586,2.633,2.633,0,0,1-2.4-1.33,5.437,5.437,0,0,1-.524-1.293c-.132-.471-.262-.966-.392-1.473" transform="translate(120.365 -717.372)"/>
    <path id="Path_4126" data-name="Path 4126" d="M160.748,781.579a6.261,6.261,0,0,0,1.241,4.169,4.065,4.065,0,0,0,3.253,1.458,3.733,3.733,0,0,0,2.958-1.491,6.523,6.523,0,0,0,1.24-4.272,8.314,8.314,0,0,0-.516-3.094,4.5,4.5,0,0,0-1.463-2.008,3.614,3.614,0,0,0-2.219-.706,3.931,3.931,0,0,0-2.309.706,4.685,4.685,0,0,0-1.6,2.048,7.9,7.9,0,0,0-.586,3.191m-.217-13.515v6.95a10.525,10.525,0,0,1,2.617-2.047,6.973,6.973,0,0,1,3.3-.711,7.292,7.292,0,0,1,3.975,1.074,7.06,7.06,0,0,1,2.645,3.117,11.422,11.422,0,0,1,.945,4.841,13.106,13.106,0,0,1-.524,3.788,9.1,9.1,0,0,1-1.525,2.992,6.869,6.869,0,0,1-2.429,1.957,7.11,7.11,0,0,1-3.141.693,7.528,7.528,0,0,1-1.973-.25,5.7,5.7,0,0,1-1.576-.659,6.921,6.921,0,0,1-1.108-.841c-.3-.285-.707-.717-1.207-1.3v.449a2.745,2.745,0,0,1-.614,1.94,2.072,2.072,0,0,1-1.57.659,1.953,1.953,0,0,1-1.541-.659,2.886,2.886,0,0,1-.575-1.94V768.263a3.343,3.343,0,0,1,.56-2.093,1.871,1.871,0,0,1,1.557-.706,2,2,0,0,1,1.616.677A2.9,2.9,0,0,1,160.531,768.064Z" transform="translate(130.437 -717.464)"/>
    <path id="Path_4127" data-name="Path 4127" d="M173.994,770.06a2.394,2.394,0,0,1-1.621-.58,2.062,2.062,0,0,1-.672-1.65,2.037,2.037,0,0,1,.689-1.581,2.325,2.325,0,0,1,1.6-.626,2.378,2.378,0,0,1,1.563.563,2.018,2.018,0,0,1,.684,1.644,2.078,2.078,0,0,1-.666,1.638,2.308,2.308,0,0,1-1.581.592" transform="translate(134.92 -717.418)"/>
    <path id="Path_4128" data-name="Path 4128" d="M176.241,773.285v13.151a2.937,2.937,0,0,1-.649,2.065,2.14,2.14,0,0,1-1.645.7,2.048,2.048,0,0,1-1.621-.716,3.036,3.036,0,0,1-.626-2.048V773.422a2.936,2.936,0,0,1,.626-2.037,2.1,2.1,0,0,1,1.621-.682,2.172,2.172,0,0,1,1.645.682,2.656,2.656,0,0,1,.649,1.9" transform="translate(134.92 -715.946)"/>
    <path id="Path_4129" data-name="Path 4129" d="M177.07,787.955V768.229a3.07,3.07,0,0,1,.609-2.065,2.05,2.05,0,0,1,1.638-.7,2.149,2.149,0,0,1,1.66.694,2.973,2.973,0,0,1,.632,2.071v19.725a2.958,2.958,0,0,1-.642,2.072,2.153,2.153,0,0,1-1.65.693A2.048,2.048,0,0,1,177.7,790a3.02,3.02,0,0,1-.625-2.048" transform="translate(136.477 -717.464)"/>
    <path id="Path_4130" data-name="Path 4130" d="M184.73,770.06a2.4,2.4,0,0,1-1.621-.58,2.062,2.062,0,0,1-.672-1.65,2.034,2.034,0,0,1,.69-1.581,2.32,2.32,0,0,1,1.6-.626,2.383,2.383,0,0,1,1.565.563,2.025,2.025,0,0,1,.682,1.644,2.078,2.078,0,0,1-.666,1.638,2.306,2.306,0,0,1-1.581.592" transform="translate(138.032 -717.418)"/>
    <path id="Path_4131" data-name="Path 4131" d="M186.977,773.285v13.151a2.93,2.93,0,0,1-.649,2.065,2.14,2.14,0,0,1-1.645.7,2.045,2.045,0,0,1-1.62-.716,3.029,3.029,0,0,1-.627-2.048V773.422a2.93,2.93,0,0,1,.627-2.037,2.093,2.093,0,0,1,1.62-.682,2.171,2.171,0,0,1,1.645.682,2.65,2.65,0,0,1,.649,1.9" transform="translate(138.032 -715.946)"/>
    <path id="Path_4132" data-name="Path 4132" d="M189.131,772.5h.5v-2.736c0-.734.015-1.309.055-1.723a2.545,2.545,0,0,1,.325-1.076,2.026,2.026,0,0,1,.767-.762,2.162,2.162,0,0,1,1.116-.29,2.236,2.236,0,0,1,1.558.649,1.931,1.931,0,0,1,.591,1.064,9.427,9.427,0,0,1,.125,1.775v3.1h1.666a2.137,2.137,0,0,1,1.473.455,1.506,1.506,0,0,1,.512,1.171,1.319,1.319,0,0,1-.727,1.286,4.711,4.711,0,0,1-2.075.364h-.849v8.362a13.261,13.261,0,0,0,.075,1.643,1.674,1.674,0,0,0,.4.932,1.381,1.381,0,0,0,1.063.36,5.539,5.539,0,0,0,1.081-.143,5.881,5.881,0,0,1,1.063-.142,1.369,1.369,0,0,1,1,.444,1.475,1.475,0,0,1,.439,1.092A1.816,1.816,0,0,1,198.09,790a8.053,8.053,0,0,1-3.454.586,5.917,5.917,0,0,1-3.223-.716,3.316,3.316,0,0,1-1.439-1.985,13.388,13.388,0,0,1-.341-3.378v-8.732h-.6a2.148,2.148,0,0,1-1.5-.467,1.51,1.51,0,0,1-.519-1.183,1.478,1.478,0,0,1,.54-1.171,2.411,2.411,0,0,1,1.576-.455" transform="translate(139.359 -717.334)"/>
    <path id="Path_4133" data-name="Path 4133" d="M201.966,789.776l.42-1.018-5.6-14.1a5.263,5.263,0,0,1-.517-1.768,2.121,2.121,0,0,1,.3-1.087,2.232,2.232,0,0,1,.826-.8,2.155,2.155,0,0,1,1.086-.3,1.783,1.783,0,0,1,1.485.627,5.708,5.708,0,0,1,.882,1.792l3.85,11.2,3.648-10.414a17.463,17.463,0,0,1,.784-1.985,2.307,2.307,0,0,1,.739-.967,2.08,2.08,0,0,1,1.109-.25,1.968,1.968,0,0,1,.989.273,1.993,1.993,0,0,1,.989,1.73c-.045.21-.114.511-.217.9s-.221.784-.362,1.182l-5.933,15.535a18.525,18.525,0,0,1-1.5,3.221,4.911,4.911,0,0,1-1.944,1.792,7.154,7.154,0,0,1-3.256.625,7.855,7.855,0,0,1-3-.433,1.585,1.585,0,0,1-1-1.581,1.52,1.52,0,0,1,.477-1.206,2.037,2.037,0,0,1,1.4-.426,2.743,2.743,0,0,1,.717.1,3.416,3.416,0,0,0,.752.1,2.7,2.7,0,0,0,1.228-.233,2.146,2.146,0,0,0,.807-.807,12.343,12.343,0,0,0,.824-1.695" transform="translate(141.892 -715.946)"/>
    <path id="Path_4134" data-name="Path 4134" d="M154.571,779.958a6.848,6.848,0,0,0-1.223-4.329,3.985,3.985,0,0,0-3.289-1.546,4.065,4.065,0,0,0-2.348.687,4.377,4.377,0,0,0-1.565,2.043,9.246,9.246,0,0,0-.012,6.262,4.5,4.5,0,0,0,1.548,2.042,4.02,4.02,0,0,0,2.376.705,3.963,3.963,0,0,0,3.289-1.558,6.819,6.819,0,0,0,1.223-4.307m4.574,0a10.758,10.758,0,0,1-.632,3.748,8.3,8.3,0,0,1-1.837,2.947,8.049,8.049,0,0,1-2.867,1.888,10.137,10.137,0,0,1-3.75.659,9.861,9.861,0,0,1-3.72-.664,8.216,8.216,0,0,1-4.691-4.841,10.787,10.787,0,0,1-.626-3.743,10.9,10.9,0,0,1,.631-3.783,8.314,8.314,0,0,1,1.82-2.934,8.062,8.062,0,0,1,2.866-1.872,10.852,10.852,0,0,1,7.469.005,8.077,8.077,0,0,1,4.709,4.841A10.82,10.82,0,0,1,159.145,779.958Z" transform="translate(126.029 -715.946)"/>
    <path id="Path_4135" data-name="Path 4135" d="M65.018,789.315a1.838,1.838,0,0,1,.342-1.273,1.637,1.637,0,0,1,1.207-.357h.544a1.814,1.814,0,0,1,1.2.308,1.346,1.346,0,0,1,.347,1.048v.206h-.53v-.13a.99.99,0,0,0-.215-.738,1.3,1.3,0,0,0-.845-.2h-.359a2.568,2.568,0,0,0-.614.053.73.73,0,0,0-.32.178.654.654,0,0,0-.181.317,3.381,3.381,0,0,0-.05.717V790.8a3.359,3.359,0,0,0,.05.713.654.654,0,0,0,.181.317.711.711,0,0,0,.311.178,2.556,2.556,0,0,0,.623.053h.359a1.267,1.267,0,0,0,.856-.208,1.117,1.117,0,0,0,.213-.8c0-.061,0-.106,0-.137s0-.063,0-.09h.528v.313a1.458,1.458,0,0,1-.337,1.1,1.8,1.8,0,0,1-1.215.312h-.544a1.63,1.63,0,0,1-1.207-.36,1.838,1.838,0,0,1-.342-1.273Z" transform="translate(104.001 -711.024)"/>
    <path id="Path_4136" data-name="Path 4136" d="M71.081,792.488V787.73h.512v2.055h2.679V787.73h.512v4.758h-.512v-2.206H71.592v2.206Z" transform="translate(105.758 -711.01)"/>
    <path id="Path_4137" data-name="Path 4137" d="M77,792.488l1.718-4.758h.846l1.726,4.758h-.53l-.444-1.218H77.967l-.433,1.218Zm1.136-1.688h2.015l-.927-2.564H79.06Z" transform="translate(107.474 -711.01)"/>
    <path id="Path_4138" data-name="Path 4138" d="M83.376,792.488V787.73h2.1a1.786,1.786,0,0,1,1.078.239,1.03,1.03,0,0,1,.3.846v.72a1.013,1.013,0,0,1-.148.588.663.663,0,0,1-.451.266.725.725,0,0,1,.466.291,1.28,1.28,0,0,1,.134.666v1.143H86.31v-.98a1.088,1.088,0,0,0-.157-.691.8.8,0,0,0-.617-.181H83.888v1.852Zm2-4.254H83.888v1.9h1.483a1.311,1.311,0,0,0,.76-.147.649.649,0,0,0,.179-.526v-.556a.665.665,0,0,0-.173-.531A1.34,1.34,0,0,0,85.371,788.234Z" transform="translate(109.322 -711.01)"/>
    <path id="Path_4139" data-name="Path 4139" d="M89.265,789.315a1.748,1.748,0,0,1,.369-1.272,1.859,1.859,0,0,1,1.305-.359h.591a2.154,2.154,0,0,1,1.267.3,1.08,1.08,0,0,1,.408.933v.2h-.531v-.058a.829.829,0,0,0-.244-.685,1.581,1.581,0,0,0-.93-.194h-.41a3.033,3.033,0,0,0-.686.055.877.877,0,0,0-.357.181.631.631,0,0,0-.188.316,3.141,3.141,0,0,0-.054.713V790.8a3.1,3.1,0,0,0,.054.708.632.632,0,0,0,.188.316.878.878,0,0,0,.35.182,3.042,3.042,0,0,0,.694.054h.41a2.892,2.892,0,0,0,.627-.048.809.809,0,0,0,.32-.163.61.61,0,0,0,.177-.3,2.852,2.852,0,0,0,.05-.646v-.293H91.382v-.485H93.2v.8a1.738,1.738,0,0,1-.37,1.273,1.855,1.855,0,0,1-1.3.359h-.591a1.859,1.859,0,0,1-1.305-.359,1.744,1.744,0,0,1-.369-1.273Z" transform="translate(111.028 -711.024)"/>
    <rect id="Rectangle_2266" data-name="Rectangle 2266" width="0.518" height="4.758" transform="translate(208.469 76.72)"/>
    <path id="Path_4140" data-name="Path 4140" d="M99.439,792.488V787.73h.793l2.519,4.247V787.73h.512v4.758h-.793l-2.519-4.253v4.253Z" transform="translate(113.977 -711.01)"/>
    <path id="Path_4141" data-name="Path 4141" d="M105.7,789.315a1.754,1.754,0,0,1,.369-1.272,1.863,1.863,0,0,1,1.307-.359h.589a2.156,2.156,0,0,1,1.268.3,1.083,1.083,0,0,1,.406.933v.2h-.53v-.058a.829.829,0,0,0-.244-.685,1.586,1.586,0,0,0-.931-.194h-.409a3.046,3.046,0,0,0-.687.055.88.88,0,0,0-.356.181.642.642,0,0,0-.19.316,3.141,3.141,0,0,0-.054.713V790.8a3.1,3.1,0,0,0,.054.708.643.643,0,0,0,.19.316.878.878,0,0,0,.35.182,3.042,3.042,0,0,0,.694.054h.409a2.906,2.906,0,0,0,.628-.048.8.8,0,0,0,.319-.163.612.612,0,0,0,.178-.3,2.852,2.852,0,0,0,.05-.646v-.293h-1.29v-.485h1.82v.8a1.738,1.738,0,0,1-.369,1.273,1.859,1.859,0,0,1-1.305.359h-.589a1.863,1.863,0,0,1-1.307-.359,1.749,1.749,0,0,1-.369-1.273Z" transform="translate(115.792 -711.024)"/>
    <rect id="Rectangle_2267" data-name="Rectangle 2267" width="0.518" height="4.758" transform="translate(233.992 76.72)"/>
    <path id="Path_4142" data-name="Path 4142" d="M119.226,792.488V787.73h.792l2.52,4.247V787.73h.511v4.758h-.793l-2.52-4.253v4.253Z" transform="translate(119.712 -711.01)"/>
    <path id="Path_4143" data-name="Path 4143" d="M125.138,788.234v-.5h3.479v.5h-1.483v4.254h-.518v-4.254Z" transform="translate(121.425 -711.01)"/>
    <path id="Path_4144" data-name="Path 4144" d="M130.664,789.317a1.75,1.75,0,0,1,.369-1.273,1.864,1.864,0,0,1,1.308-.359h.587a1.877,1.877,0,0,1,1.312.353,1.768,1.768,0,0,1,.364,1.278v1.611a1.745,1.745,0,0,1-.37,1.274,1.866,1.866,0,0,1-1.305.359h-.587a1.864,1.864,0,0,1-1.308-.359,1.745,1.745,0,0,1-.369-1.274Zm2.11-1.135h-.288a3.029,3.029,0,0,0-.693.055.879.879,0,0,0-.35.181.662.662,0,0,0-.192.328,3.056,3.056,0,0,0-.057.708V790.8a2.978,2.978,0,0,0,.057.7.655.655,0,0,0,.192.325.878.878,0,0,0,.35.182,3.037,3.037,0,0,0,.693.054h.288a3.092,3.092,0,0,0,.7-.054.872.872,0,0,0,.352-.182.637.637,0,0,0,.188-.317,3.022,3.022,0,0,0,.054-.708v-1.354a3.055,3.055,0,0,0-.055-.707.647.647,0,0,0-.193-.328.854.854,0,0,0-.346-.178A3.152,3.152,0,0,0,132.774,788.182Z" transform="translate(123.027 -711.024)"/>
    <path id="Path_4145" data-name="Path 4145" d="M139.893,788.234v-.5h3.479v.5h-1.484v4.254h-.518v-4.254Z" transform="translate(125.702 -711.01)"/>
    <path id="Path_4146" data-name="Path 4146" d="M145.534,792.488V787.73h.51v2.055h2.68V787.73h.511v4.758h-.511v-2.206h-2.68v2.206Z" transform="translate(127.337 -711.01)"/>
    <path id="Path_4147" data-name="Path 4147" d="M151.837,792.488V787.73H155.1v.5h-2.75v1.558h2.672v.484h-2.672v1.715h2.75v.5Z" transform="translate(129.164 -711.01)"/>
    <path id="Path_4148" data-name="Path 4148" d="M160.918,792.488V787.73h2.9v.5h-2.392v1.558h2.32v.484h-2.32v2.212Z" transform="translate(131.795 -711.01)"/>
    <path id="Path_4149" data-name="Path 4149" d="M166.382,787.73h.52v3.124a2.893,2.893,0,0,0,.048.642.608.608,0,0,0,.166.293.712.712,0,0,0,.3.163,2.655,2.655,0,0,0,.6.045h.488a2.7,2.7,0,0,0,.6-.045.717.717,0,0,0,.3-.163.592.592,0,0,0,.161-.29,3,3,0,0,0,.048-.645V787.73h.517v3.187a1.8,1.8,0,0,1-.352,1.269,1.7,1.7,0,0,1-1.24.361h-.564a1.7,1.7,0,0,1-1.24-.361,1.79,1.79,0,0,1-.353-1.269Z" transform="translate(133.378 -711.01)"/>
    <path id="Path_4150" data-name="Path 4150" d="M172.2,788.234v-.5h3.479v.5h-1.484v4.254h-.518v-4.254Z" transform="translate(135.064 -711.01)"/>
    <path id="Path_4151" data-name="Path 4151" d="M177.8,787.73h.518v3.124a3,3,0,0,0,.046.642.631.631,0,0,0,.168.293.711.711,0,0,0,.3.163,2.655,2.655,0,0,0,.6.045h.489a2.694,2.694,0,0,0,.6-.045.716.716,0,0,0,.3-.163.593.593,0,0,0,.163-.29,3.115,3.115,0,0,0,.046-.645V787.73h.517v3.187a1.8,1.8,0,0,1-.351,1.269,1.7,1.7,0,0,1-1.241.361h-.564a1.7,1.7,0,0,1-1.239-.361,1.8,1.8,0,0,1-.352-1.269Z" transform="translate(136.689 -711.01)"/>
    <path id="Path_4152" data-name="Path 4152" d="M184.107,792.488V787.73h2.1a1.788,1.788,0,0,1,1.08.239,1.034,1.034,0,0,1,.3.846v.72a1,1,0,0,1-.15.588.66.66,0,0,1-.45.266.728.728,0,0,1,.466.291,1.279,1.279,0,0,1,.134.666v1.143h-.538v-.98a1.1,1.1,0,0,0-.156-.691.808.808,0,0,0-.618-.181h-1.65v1.852Zm1.994-4.254h-1.483v1.9H186.1a1.308,1.308,0,0,0,.76-.147.645.645,0,0,0,.181-.526v-.556a.665.665,0,0,0-.173-.531A1.345,1.345,0,0,0,186.1,788.234Z" transform="translate(138.516 -711.01)"/>
    <path id="Path_4153" data-name="Path 4153" d="M190.134,792.488V787.73H193.4v.5h-2.75v1.558h2.672v.484h-2.672v1.715h2.75v.5Z" transform="translate(140.263 -711.01)"/>
    <path id="Path_4154" data-name="Path 4154" d="M82.378,768.635c-9.465,3.8-12.11,17.86-16.773,27-1.505,2.949-2.964,4.321-5.47,4.321a4.949,4.949,0,0,1-3.939-2.121l-12.47-20.707c-6.485-10.77,14.705-13.145,27.215-10.535-3.706,1.608-6.474,4.452-10.228,15.135a1.679,1.679,0,0,1-1.5,1.116,1.7,1.7,0,0,1-1.641-.9l-3.617-6.632a11.374,11.374,0,0,0-1.309-2.074,1.786,1.786,0,0,0-1.695-.41,2.2,2.2,0,0,0-1.06.472,2.275,2.275,0,0,0-.673.891,1.829,1.829,0,0,0-.139.991,2.967,2.967,0,0,0,.226.713,7.21,7.21,0,0,0,.405.787l.442.767,6.145,10.223c.608.979,1.037,1.635,1.28,1.961a3.007,3.007,0,0,0,1.02.847,2.556,2.556,0,0,0,1.643.2,2.749,2.749,0,0,0,1.252-.5,2.641,2.641,0,0,0,.771-.948c6.821-14.009,6.232-21.942,20.119-20.607" transform="translate(97.48 -717.417)" fill="#24b354" fill-rule="evenodd"/>
  </g>
</svg>
